{"title":"Sharpays Fabulous Adventure 2011 DVDrip Dutch Klam","uid":6698572,"size":1534470135,"categoryP":"video","categoryS":"movies","magnet":"?xt=urn:btih:b3b27ea1ede6adeeeb2e89fc1ac0ea1f1a9e5791&amp;dn=Sharpays+Fabulous+Adventure+2011+DVDrip+Dutch+Klam&amp;tr=udp%3A%2F%2Ftracker.openbittorrent.com%3A80&amp;tr=udp%3A%2F%2Fopen.demonii.com%3A1337&amp;tr=udp%3A%2F%2Ftracker.coppersurfer.tk%3A6969&amp;tr=udp%3A%2F%2Fexodus.desync.com%3A6969","seeders":0,"leechers":0,"uploader":"Klambake","files":-1,"time":1316873478,"description":"With dutch voices:\n\nNederlands gesproken,\nSharpay Evans krijgt te horen dat ze auditie mag doen voor een musical op Broadway. Ze reist af naar New York samen met haar hondje. Eenmaal aangekomen blijkt dat de auditie voor haar hond is, en niet voor Sharpay zelf. Zal haar droom in duigen vallen, of zal dit het begin zijn van een nieuw avontuur?\n\nDutch spoken,\nSharpay Evans travels to New York where she is pursuing a Broadway career but it's her dog who lands an acting gig first. \n\n------------------ Dutch Friends ------------------\nYou can find my Friends at: http://www.Film-Test.nl \n------ They got my dutchs subs ---- and more ------\n\nGeneral:\n\nComplete name                    : Sharpays Fabulous Adventure\\Sharpays Fabulous Adventure.avi\nFormat                           : AVI\nFormat/Info                      : Audio Video Interleave\nFile size                        : 1.43 GiB\nDuration                         : 1h 25mn\nOverall bit rate                 : 2 381 Kbps\n\nVideo:\n\nFormat                           : MPEG-4 Visual\nFormat profile                   : Simple@L3\nFormat settings, BVOP            : No\nFormat settings, QPel            : No\nFormat settings, GMC             : No warppoints\nFormat settings, Matrix          : Default (H.263)\nCodec ID                         : XVID\nCodec ID/Hint                    : XviD\nDuration                         : 1h 25mn\nBit rate                         : 1 987 Kbps\nWidth                            : 704 pixels\nHeight                           : 396 pixels\nDisplay aspect ratio             : 16:9\nFrame rate                       : 25.000 fps\nColor space                      : YUV\nChroma subsampling               : 4:2:0\nBit depth                        : 8 bits\nScan type                        : Progressive\nBits/(Pixel*Frame)               : 0.285\nStream size                      : 1.19 GiB (83%)\nWriting library                  : XviD 1.1.2 (UTC 2006-11-01)\n\nAudio:\n\nFormat                           : AC-3\nFormat/Info                      : Audio Coding 3\nMode extension                   : CM (complete main)\nCodec ID                         : 2000\nDuration                         : 1h 25mn\nBit rate mode                    : Constant\nBit rate                         : 384 Kbps\nChannel(s)                       : 6 channels\nChannel positions                : Front: L C R, Side: L R, LFE\nSampling rate                    : 48.0 KHz\nBit depth                        : 16 bits\nStream size                      : 236 MiB (16%)\nAlignment                        : Aligned on interleaves\nInterleave, duration             : 32 ms (0.80 video frame)\nInterleave, preload duration     : 256 ms\n","torrent":{"xt":"urn:btih:b3b27ea1ede6adeeeb2e89fc1ac0ea1f1a9e5791","amp;dn":"Sharpays+Fabulous+Adventure+2011+DVDrip+Dutch+Klam","amp;tr":["udp%3A%2F%2Ftracker.openbittorrent.com%3A80","udp%3A%2F%2Fopen.demonii.com%3A1337","udp%3A%2F%2Ftracker.coppersurfer.tk%3A6969","udp%3A%2F%2Fexodus.desync.com%3A6969"],"infoHash":"b3b27ea1ede6adeeeb2e89fc1ac0ea1f1a9e5791","infoHashBuffer":{"type":"Buffer","data":[179,178,126,161,237,230,173,238,235,46,137,252,26,192,234,31,26,158,87,145]},"announce":[],"urlList":[]}}